REM MD5 04204d8ffad2a1feb1e03019a818b321
FILE "Euro Demo 39 (France).bin" BINARY
  TRACK 01 MODE2/2352
    INDEX 01 00:00:00
  TRACK 02 AUDIO
    INDEX 00 44:30:69
    INDEX 01 44:32:69
  TRACK 03 AUDIO
    INDEX 00 46:32:69
    INDEX 01 46:34:69
  TRACK 04 AUDIO
    INDEX 00 48:07:12
    INDEX 01 48:09:12
  TRACK 05 AUDIO
    INDEX 00 49:10:14
    INDEX 01 49:12:14
  TRACK 06 AUDIO
    INDEX 00 49:17:29
    INDEX 01 49:19:29
REM LEADOUT 52:20:61
